HIERARCHY
ROOT Hips
{
	OFFSET 0.00000 0.00000 0.00000
	CHANNELS 6 Xposition Yposition Zposition Zrotation Yrotation Xrotation 
	JOINT LHipJoint
	{
		OFFSET 0 0 0
		CHANNELS 3 Zrotation Yrotation Xrotation
		JOINT LeftHip
		{
			OFFSET 1.58895 -1.83665 0.71753
			CHANNELS 3 Zrotation Yrotation Xrotation
			JOINT LeftKnee
			{
				OFFSET 2.50528 -6.88321 0.00000
				CHANNELS 3 Zrotation Yrotation Xrotation
				JOINT LeftAnkle
				{
					OFFSET 2.63244 -7.23257 0.00000
					CHANNELS 3 Zrotation Yrotation Xrotation
					JOINT LeftToe
					{
						OFFSET 0.23691 -0.65090 1.72750
						CHANNELS 3 Zrotation Yrotation Xrotation
						End Site
						{
							OFFSET 0.00000 -0.00000 0.92561
						}
					}
				}
			}
		}
	}
	JOINT RHipJoint
	{
		OFFSET 0 0 0
		CHANNELS 3 Zrotation Yrotation Xrotation
		JOINT RightHip
		{
			OFFSET -1.51435 -1.83665 0.71753
			CHANNELS 3 Zrotation Yrotation Xrotation
			JOINT RightKnee
			{
				OFFSET -2.54551 -6.99375 0.00000
				CHANNELS 3 Zrotation Yrotation Xrotation
				JOINT RightAnkle
				{
					OFFSET -2.66027 -7.30903 0.00000
					CHANNELS 3 Zrotation Yrotation Xrotation
					JOINT RightToe
					{
						OFFSET -0.22981 -0.63138 2.03959
						CHANNELS 3 Zrotation Yrotation Xrotation
						End Site
						{
							OFFSET -0.00000 -0.00000 1.07060
						}
					}
				}
			}
		}
	}
	JOINT lowerback
	{
		OFFSET 0 0 0
		CHANNELS 3 Zrotation Yrotation Xrotation
		JOINT Chest
		{
			OFFSET -0.02651 1.86275 -0.11152
			CHANNELS 3 Zrotation Yrotation Xrotation
			JOINT Chest2
			{
				OFFSET 0.01019 1.86224 0.04087
				CHANNELS 3 Zrotation Yrotation Xrotation
				JOINT lowerneck
				{
					OFFSET 0 0 0
					CHANNELS 3 Zrotation Yrotation Xrotation
					JOINT Neck
					{
						OFFSET -0.01926 1.80512 0.08867
						CHANNELS 3 Zrotation Yrotation Xrotation
						JOINT Head
						{
							OFFSET 0.05516 1.76451 -0.38475
							CHANNELS 3 Zrotation Yrotation Xrotation
							End Site
							{
								OFFSET 0.01592 1.82587 -0.14001
							}
						}
					}
				}
				JOINT LeftCollar
				{
					OFFSET 0 0 0
					CHANNELS 3 Zrotation Yrotation Xrotation
					JOINT LeftShoulder
					{
						OFFSET 3.47116 1.51376 0.14491
CHANNELS 3 Zrotation Xrotation Yrotation
						JOINT LeftElbow
						{
OFFSET 0 -4.780950 0.000000
CHANNELS 3 Zrotation Xrotation Yrotation
							JOINT LeftWrist
							{
OFFSET 0 -3.586150 -0.000000
CHANNELS 3 Zrotation Xrotation Yrotation
								JOINT lhand
								{
									OFFSET 0 0 0
CHANNELS 3 Zrotation Xrotation Yrotation
									JOINT LFingers
									{
OFFSET 0 -0.659810 0.000000
CHANNELS 3 Zrotation Xrotation Yrotation
										End Site
										{
OFFSET 0 -0.531960 0.000000
										}
									}
								}
								JOINT LThumb
								{
OFFSET 0 0.000000 0.000000
CHANNELS 3 Zrotation Xrotation Yrotation
									End Site
									{
OFFSET 0 -0.540080 0.540080
									}
								}
							}
						}
					}
				}
				JOINT RightCollar
				{
					OFFSET 0 0 0
					CHANNELS 3 Zrotation Yrotation Xrotation
					JOINT RightShoulder
					{
						OFFSET -3.31725 1.61216 0.35156
CHANNELS 3 Zrotation Xrotation Yrotation
						JOINT RightElbow
						{
OFFSET 0 -4.489130 0.000000
CHANNELS 3 Zrotation Xrotation Yrotation
							JOINT RightWrist
							{
OFFSET 0 -3.705100 0.000000
CHANNELS 3 Zrotation Xrotation Yrotation
								JOINT rhand
								{
									OFFSET 0 0 0
CHANNELS 3 Zrotation Xrotation Yrotation
									JOINT RFingers
									{
OFFSET 0 -0.449140 0.000000
CHANNELS 3 Zrotation Xrotation Yrotation
										End Site
										{
OFFSET 0 -0.362110 0.000000
										}
									}
								}
								JOINT RThumb
								{
OFFSET 0 0.000000 0.000000
CHANNELS 3 Zrotation Xrotation Yrotation
									End Site
									{
OFFSET 0 -0.367630 0.367630
									}
								}
							}
						}
					}
				}
			}
		}
	}
}
MOTION
Frames: 7
Frame Time: 0.008333333333333333
-0.221954 18.730991 4.876551 -0.390113 -11.264662 11.102096 0.000000 0.000000 0.000000 -14.106807 -3.157989 -19.769863 2.202211 9.275080 26.659781 1.278521 4.969243 -23.675746 8.250578 -16.300452 -53.460325 0.000000 0.000000 0.000000 9.288530 15.722966 -8.942264 -0.142363 -2.431464 6.699703 -0.407688 -7.485856 -17.064310 -0.254657 3.245764 -8.963874 -1.260336 2.495187 26.027864 2.366668 3.029892 6.229776 2.373879 1.443037 -7.703012 -7.000608 -8.354211 -12.396104 6.932720 -11.515110 19.317299 2.126448 -5.232624 8.903484 0.000000 0.000000 0.000000 20.555676 -11.572723 -70.573961 118.514598 -56.692926 84.420194 20.479329 -43.494006 4.960280 0.000000 0.000000 0.000000 -7.125000 0.000000 0.000000 -4.630686 24.687070 -2.280474 0.000000 0.000000 0.000000 -14.487477 -22.665933 42.008458 -96.654121 -59.806694 -65.757787 -13.302672 -55.212073 68.457997 0.000000 0.000000 0.000000 7.125000 0.000000 0.000000 111.658297 -74.210734 127.565388
-0.219141 18.739065 4.862426 -0.033492 -10.525198 11.106472 0.000000 0.000000 0.000000 -14.409344 -3.580692 -19.732358 2.153623 9.178932 26.356741 1.244558 4.805436 -23.306729 8.267687 -16.312620 -53.521198 0.000000 0.000000 0.000000 9.016740 14.898526 -9.008831 -0.133335 -2.353378 6.483168 -0.406504 -7.467547 -17.033558 -0.227602 3.070928 -8.476327 -0.890449 2.702775 25.884491 2.488148 3.406819 6.256128 2.178180 1.618781 -7.609731 -7.837296 -9.056341 -11.903197 7.619282 -12.464085 18.959217 2.379541 -5.684752 8.868667 0.000000 0.000000 0.000000 20.505546 -12.551369 -71.849634 118.152679 -56.782427 84.117635 20.624859 -43.998212 5.156265 0.000000 0.000000 0.000000 -7.125000 0.000000 0.000000 -4.519175 24.473474 -2.247651 0.000000 0.000000 0.000000 -16.197769 -25.344100 38.751609 -88.724985 -59.990755 -58.895846 -16.501959 -51.977864 68.495447 0.000000 0.000000 0.000000 7.125000 0.000000 0.000000 114.773797 -74.662568 129.897315
-0.220618 18.746816 4.847791 0.319214 -9.628949 11.161007 0.000000 0.000000 0.000000 -14.686478 -4.080818 -19.719323 2.100516 9.072376 26.021989 1.210777 4.636010 -22.931436 8.265377 -16.310996 -53.512992 0.000000 0.000000 0.000000 8.776743 13.952753 -9.203837 -0.130857 -2.331739 6.423485 -0.407689 -7.461732 -17.042080 -0.224353 3.048616 -8.414216 -0.326565 2.811178 25.802544 2.584834 3.700558 6.341800 1.871732 1.752009 -7.460143 -8.473233 -9.729276 -11.618428 8.201041 -13.380006 18.582108 2.558417 -6.113286 8.857565 0.000000 0.000000 0.000000 20.094136 -13.789938 -73.100868 117.350736 -56.974961 83.445834 20.785866 -44.170889 5.312086 0.000000 0.000000 0.000000 -7.125000 0.000000 0.000000 -4.397336 24.301595 -2.203948 0.000000 0.000000 0.000000 -17.634720 -27.706340 35.925725 -80.706355 -59.645223 -51.962545 -17.013507 -51.624730 68.693449 0.000000 0.000000 0.000000 7.125000 0.000000 0.000000 115.818648 -74.618580 130.879980
-0.227874 18.752310 4.827004 0.558216 -8.727782 11.237823 0.000000 0.000000 0.000000 -14.820695 -4.479198 -19.767582 2.046751 8.962708 25.678918 1.167269 4.388086 -22.426449 8.290664 -16.328913 -53.602917 0.000000 0.000000 0.000000 8.674895 13.062622 -9.485718 -0.134472 -2.363363 6.510908 -0.411781 -7.428278 -17.061415 -0.232455 3.103356 -8.566695 0.358282 2.871393 25.899620 2.766166 3.969086 6.458727 1.593537 1.871747 -7.357959 -9.336777 -10.362018 -11.390499 8.958598 -14.221981 18.087052 2.834445 -6.507722 8.853179 0.000000 0.000000 0.000000 19.270040 -15.070517 -74.287527 116.447889 -57.183897 82.687927 21.497470 -44.464092 5.678318 0.000000 0.000000 0.000000 -7.125000 0.000000 0.000000 -3.865939 23.881421 -1.972833 0.000000 0.000000 0.000000 -19.008637 -29.599101 33.738692 -73.931562 -58.979727 -46.133793 -17.019685 -52.074873 69.484956 0.000000 0.000000 0.000000 7.125000 0.000000 0.000000 117.822267 -74.172110 133.134629
-0.236490 18.755370 4.806751 0.779176 -7.754685 11.410202 0.000000 0.000000 0.000000 -14.897635 -4.923246 -19.925226 1.993617 8.852737 25.335661 1.122375 4.052258 -21.855061 8.319530 -16.349302 -53.705488 0.000000 0.000000 0.000000 8.609698 12.134676 -9.893597 -0.141248 -2.421772 6.672808 -0.427662 -7.309906 -17.144630 -0.235824 3.125641 -8.628771 1.164257 2.823117 25.980628 2.946958 4.129043 6.582214 1.281580 1.939652 -7.224740 -10.216424 -10.942579 -11.189056 9.805097 -14.996981 17.478053 3.147014 -6.866555 8.830479 0.000000 0.000000 0.000000 18.235401 -16.232780 -75.259917 115.728839 -57.344545 82.083115 22.077136 -45.060558 5.992028 0.000000 0.000000 0.000000 -7.125000 0.000000 0.000000 -3.435616 23.519837 -1.782161 0.000000 0.000000 0.000000 -20.389617 -30.948061 32.410198 -68.807674 -58.229447 -41.756422 -17.537792 -52.097616 70.388804 0.000000 0.000000 0.000000 7.125000 0.000000 0.000000 120.461282 -73.688204 135.948078
-0.247318 18.760243 4.794216 1.075295 -6.975473 11.645683 0.000000 0.000000 0.000000 -15.073578 -5.207207 -20.115614 1.936323 8.732047 24.960653 1.083371 3.697174 -21.319199 8.332714 -16.358538 -53.752266 0.000000 0.000000 0.000000 8.443307 11.411641 -10.397701 -0.153675 -2.525330 6.959972 -0.462919 -7.109028 -17.385211 -0.254575 3.246131 -8.964810 1.795623 2.791480 25.973700 3.086327 4.259230 6.696919 1.037193 1.997422 -7.061616 -10.827799 -11.413241 -11.008278 10.474243 -15.628756 16.857537 3.376545 -7.158729 8.768267 0.000000 0.000000 0.000000 17.031199 -17.194164 -75.990510 115.304314 -57.436624 81.725542 21.688688 -45.372404 5.316221 0.000000 0.000000 0.000000 -7.125000 0.000000 0.000000 -3.724916 24.262099 -1.868441 0.000000 0.000000 0.000000 -21.961160 -31.687003 32.018135 -65.749731 -57.655124 -39.164190 -19.063552 -51.522675 71.416251 0.000000 0.000000 0.000000 7.125000 0.000000 0.000000 123.999906 -73.140302 139.505846
-0.264088 18.765618 4.779426 1.514372 -6.370510 11.830959 0.000000 0.000000 0.000000 -15.413862 -5.517528 -20.186761 1.872011 8.593969 24.533381 1.043632 3.558861 -20.888893 8.380863 -16.392302 -53.923096 0.000000 0.000000 0.000000 8.095647 10.853891 -10.950659 -0.173678 -2.683748 7.399480 -0.501274 -6.866880 -17.623496 -0.254346 3.244575 -8.960425 2.141385 2.796649 26.130176 3.147204 4.361034 6.805838 0.872011 2.043586 -6.998768 -11.240420 -11.824257 -10.994998 11.092245 -16.200127 16.359909 3.556249 -7.407334 8.757481 0.000000 0.000000 0.000000 15.778540 -18.079076 -76.607460 115.057937 -57.489138 81.517879 21.692339 -45.622314 4.605957 0.000000 0.000000 0.000000 -7.125000 0.000000 0.000000 -3.725923 25.024092 -1.804006 0.000000 0.000000 0.000000 -23.453560 -32.049101 31.990146 -64.532485 -57.401374 -38.136889 -22.322819 -49.705615 72.463660 0.000000 0.000000 0.000000 7.125000 0.000000 0.000000 128.735072 -72.565348 143.955480
